<svg xmlns="http://www.w3.org/2000/svg" xmlns:xlink="http://www.w3.org/1999/xlink" width="2000" zoomAndPan="magnify" viewBox="0 0 1500 1499.999933" height="2000" preserveAspectRatio="xMidYMid meet" version="1.0"><defs><g/><clipPath id="bda86ee8f9"><path d="M 228.777344 228.777344 L 1271.21875 228.777344 L 1271.21875 1271.21875 L 228.777344 1271.21875 Z M 228.777344 228.777344 " clip-rule="nonzero"/></clipPath><clipPath id="bbfe931e4e"><path d="M 750 228.777344 C 462.136719 228.777344 228.777344 462.136719 228.777344 750 C 228.777344 1037.863281 462.136719 1271.21875 750 1271.21875 C 1037.863281 1271.21875 1271.21875 1037.863281 1271.21875 750 C 1271.21875 462.136719 1037.863281 228.777344 750 228.777344 Z M 750 228.777344 " clip-rule="nonzero"/></clipPath><clipPath id="9534daec07"><path d="M 0.777344 0.777344 L 1043.21875 0.777344 L 1043.21875 1043.21875 L 0.777344 1043.21875 Z M 0.777344 0.777344 " clip-rule="nonzero"/></clipPath><clipPath id="e52dd5c641"><path d="M 522 0.777344 C 234.136719 0.777344 0.777344 234.136719 0.777344 522 C 0.777344 809.863281 234.136719 1043.21875 522 1043.21875 C 809.863281 1043.21875 1043.21875 809.863281 1043.21875 522 C 1043.21875 234.136719 809.863281 0.777344 522 0.777344 Z M 522 0.777344 " clip-rule="nonzero"/></clipPath><clipPath id="4e1670c41e"><rect x="0" width="1044" y="0" height="1044"/></clipPath><clipPath id="1d75a07f9b"><path d="M 502.851562 458.796875 L 710.882812 458.796875 L 710.882812 1041.199219 L 502.851562 1041.199219 Z M 502.851562 458.796875 " clip-rule="nonzero"/></clipPath><clipPath id="fc111b278b"><path d="M 0.851562 0.796875 L 208.882812 0.796875 L 208.882812 583.199219 L 0.851562 583.199219 Z M 0.851562 0.796875 " clip-rule="nonzero"/></clipPath><clipPath id="f3afc30a21"><rect x="0" width="209" y="0" height="584"/></clipPath><clipPath id="7d91149138"><path d="M 322.660156 581.863281 L 494.589844 581.863281 L 494.589844 721.007812 L 322.660156 721.007812 Z M 322.660156 581.863281 " clip-rule="nonzero"/></clipPath><clipPath id="3d0b72a573"><path d="M 0.660156 0.863281 L 172.589844 0.863281 L 172.589844 140.007812 L 0.660156 140.007812 Z M 0.660156 0.863281 " clip-rule="nonzero"/></clipPath><clipPath id="b172a8db36"><rect x="0" width="173" y="0" height="141"/></clipPath></defs><path fill="#000000" d="M 750.101562 234.984375 C 1034.398438 234.984375 1265.21875 465.800781 1265.21875 750.09375 C 1265.21875 1034.394531 1034.398438 1265.210938 750.101562 1265.210938 C 465.800781 1265.210938 234.984375 1034.398438 234.984375 750.09375 C 234.984375 465.800781 465.800781 234.984375 750.101562 234.984375 Z M 793.054688 29.613281 C 764.445312 27.902344 735.761719 27.902344 707.148438 29.613281 L 657.304688 143.65625 C 612.804688 150.464844 569.191406 162.152344 527.246094 178.503906 L 427.050781 104.660156 C 401.421875 117.488281 376.582031 131.832031 352.65625 147.617188 L 366.507812 271.308594 C 331.375 299.453125 299.445312 331.378906 271.296875 366.515625 L 147.617188 352.65625 C 131.832031 376.582031 117.488281 401.421875 104.660156 427.050781 L 178.507812 527.238281 C 162.15625 569.183594 150.464844 612.796875 143.660156 657.296875 L 29.613281 707.144531 C 27.902344 735.757812 27.902344 764.4375 29.613281 793.050781 L 143.660156 842.894531 C 150.46875 887.394531 162.15625 931.007812 178.507812 972.953125 L 104.660156 1073.144531 C 117.488281 1098.773438 131.832031 1123.617188 147.617188 1147.539062 L 271.304688 1133.6875 C 299.453125 1168.816406 331.378906 1200.75 366.515625 1228.894531 L 352.660156 1352.578125 C 376.585938 1368.367188 401.429688 1382.707031 427.054688 1395.535156 L 527.246094 1321.691406 C 569.1875 1338.042969 612.800781 1349.730469 657.304688 1356.539062 L 707.148438 1470.585938 C 735.761719 1472.292969 764.445312 1472.292969 793.054688 1470.585938 L 842.902344 1356.539062 C 887.398438 1349.730469 931.015625 1338.042969 972.957031 1321.691406 L 1073.144531 1395.535156 C 1098.777344 1382.710938 1123.621094 1368.367188 1147.539062 1352.578125 L 1133.6875 1228.894531 C 1168.820312 1200.742188 1200.75 1168.816406 1228.898438 1133.6875 L 1352.585938 1147.539062 C 1368.367188 1123.617188 1382.710938 1098.773438 1395.539062 1073.144531 L 1321.691406 972.953125 C 1338.042969 931.015625 1349.730469 887.394531 1356.539062 842.894531 L 1470.589844 793.050781 C 1472.296875 764.4375 1472.296875 735.757812 1470.589844 707.144531 L 1356.539062 657.304688 C 1349.730469 612.804688 1338.042969 569.191406 1321.691406 527.246094 L 1395.539062 427.0625 C 1382.710938 401.429688 1368.367188 376.589844 1352.585938 352.664062 L 1228.898438 366.519531 C 1200.75 331.382812 1168.820312 299.457031 1133.6875 271.3125 L 1147.539062 147.621094 C 1123.617188 131.839844 1098.773438 117.492188 1073.144531 104.664062 L 972.957031 178.511719 C 931.019531 162.160156 887.40625 150.472656 842.898438 143.664062 Z M 793.054688 29.613281 " fill-opacity="1" fill-rule="evenodd"/><g clip-path="url(#bda86ee8f9)"><g clip-path="url(#bbfe931e4e)"><g transform="matrix(1, 0, 0, 1, 228, 228)"><g clip-path="url(#4e1670c41e)"><g clip-path="url(#9534daec07)"><g clip-path="url(#e52dd5c641)"><path fill="#ffffff" d="M 0.777344 0.777344 L 1043.21875 0.777344 L 1043.21875 1043.21875 L 0.777344 1043.21875 Z M 0.777344 0.777344 " fill-opacity="1" fill-rule="nonzero"/></g></g></g></g></g></g><g fill="#000000" fill-opacity="1"><g transform="translate(477.390376, 1029.374891)"><g><path d="M 685.59375 -561.59375 L 685.59375 0 L 548.796875 0 L 548.796875 -336.796875 L 423.203125 0 L 312.796875 0 L 186.40625 -337.59375 L 186.40625 0 L 49.59375 0 L 49.59375 -561.59375 L 211.203125 -561.59375 L 368.796875 -172.796875 L 524.796875 -561.59375 Z M 685.59375 -561.59375 "/></g></g></g><g clip-path="url(#1d75a07f9b)"><g transform="matrix(1, 0, 0, 1, 502, 458)"><g clip-path="url(#f3afc30a21)"><g clip-path="url(#fc111b278b)"><path fill="#ffffff" d="M 0.851562 0.796875 L 208.882812 0.796875 L 208.882812 583.453125 L 0.851562 583.453125 Z M 0.851562 0.796875 " fill-opacity="1" fill-rule="nonzero"/></g></g></g></g><g fill="#000000" fill-opacity="1"><g transform="translate(285.522635, 1029.374891)"><g><path d="M 336 0 L 219.203125 -212 L 186.40625 -212 L 186.40625 0 L 49.59375 0 L 49.59375 -561.59375 L 279.203125 -561.59375 C 323.460938 -561.59375 361.191406 -553.859375 392.390625 -538.390625 C 423.597656 -522.929688 446.929688 -501.734375 462.390625 -474.796875 C 477.859375 -447.867188 485.59375 -417.867188 485.59375 -384.796875 C 485.59375 -347.460938 475.0625 -314.128906 454 -284.796875 C 432.9375 -255.460938 401.867188 -234.664062 360.796875 -222.40625 L 490.40625 0 Z M 186.40625 -308.796875 L 271.203125 -308.796875 C 296.265625 -308.796875 315.0625 -314.925781 327.59375 -327.1875 C 340.132812 -339.457031 346.40625 -356.796875 346.40625 -379.203125 C 346.40625 -400.535156 340.132812 -417.332031 327.59375 -429.59375 C 315.0625 -441.863281 296.265625 -448 271.203125 -448 L 186.40625 -448 Z M 186.40625 -308.796875 "/></g></g></g><g clip-path="url(#7d91149138)"><g transform="matrix(1, 0, 0, 1, 322, 581)"><g clip-path="url(#b172a8db36)"><g clip-path="url(#3d0b72a573)"><path fill="#ffffff" d="M 0.660156 0.863281 L 172.414062 0.863281 L 172.414062 140.007812 L 0.660156 140.007812 Z M 0.660156 0.863281 " fill-opacity="1" fill-rule="nonzero"/></g></g></g></g><path stroke-linecap="butt" transform="matrix(-0.32573, 0.675574, -0.675574, -0.32573, 848.981672, 621.998014)" fill="none" stroke-linejoin="miter" d="M 15.60368 78.886462 C 118.281781 11.703912 220.965233 11.701271 323.646917 78.887755 " stroke="#ffffff" stroke-width="57" stroke-opacity="1" stroke-miterlimit="4"/></svg>