<svg xmlns="http://www.w3.org/2000/svg" xmlns:xlink="http://www.w3.org/1999/xlink" width="2000" zoomAndPan="magnify" viewBox="0 0 1500 1499.999933" height="2000" preserveAspectRatio="xMidYMid meet" version="1.0"><defs><g/><clipPath id="dd8d9e4341"><path d="M 347 402.796875 L 1153 402.796875 L 1153 1097.296875 L 347 1097.296875 Z M 347 402.796875 " clip-rule="nonzero"/></clipPath><clipPath id="a1a8f222df"><path d="M 493.53125 653.847656 L 1006.90625 653.847656 L 1006.90625 1030.417969 L 493.53125 1030.417969 Z M 493.53125 653.847656 " clip-rule="nonzero"/></clipPath><clipPath id="c0a0eded37"><path d="M 564.03125 653.847656 L 935.96875 653.847656 C 974.90625 653.847656 1006.46875 685.410156 1006.46875 724.347656 L 1006.46875 959.917969 C 1006.46875 998.855469 974.90625 1030.417969 935.96875 1030.417969 L 564.03125 1030.417969 C 525.09375 1030.417969 493.53125 998.855469 493.53125 959.917969 L 493.53125 724.347656 C 493.53125 685.410156 525.09375 653.847656 564.03125 653.847656 Z M 564.03125 653.847656 " clip-rule="nonzero"/></clipPath><clipPath id="ccd8859ba3"><path d="M 0.53125 0.847656 L 513.558594 0.847656 L 513.558594 377.417969 L 0.53125 377.417969 Z M 0.53125 0.847656 " clip-rule="nonzero"/></clipPath><clipPath id="d5f937794c"><path d="M 71.03125 0.847656 L 442.96875 0.847656 C 481.90625 0.847656 513.46875 32.410156 513.46875 71.347656 L 513.46875 306.917969 C 513.46875 345.855469 481.90625 377.417969 442.96875 377.417969 L 71.03125 377.417969 C 32.09375 377.417969 0.53125 345.855469 0.53125 306.917969 L 0.53125 71.347656 C 0.53125 32.410156 32.09375 0.847656 71.03125 0.847656 Z M 71.03125 0.847656 " clip-rule="nonzero"/></clipPath><clipPath id="1bdc01b938"><rect x="0" width="514" y="0" height="378"/></clipPath></defs><rect x="-150" width="1800" fill="#ffffff" y="-149.999993" height="1799.99992" fill-opacity="1"/><rect x="-150" width="1800" fill="#ffffff" y="-149.999993" height="1799.99992" fill-opacity="1"/><path fill="#468a9a" d="M 1102.582031 841.148438 C 1102.546875 850.605469 1102.53125 863.003906 1102.582031 875.199219 C 1102.632812 889.097656 1095.136719 896.78125 1080.324219 898 L 1073.011719 898.605469 L 1073.011719 761.023438 L 1080.628906 762.019531 C 1094.492188 763.8125 1102.226562 773.03125 1102.429688 787.964844 C 1102.648438 805.796875 1102.617188 823.769531 1102.582031 841.148438 Z M 398.316406 790.613281 C 398.46875 817.199219 398.46875 844.121094 398.316406 870.585938 C 398.25 879.589844 400.429688 886.175781 404.9375 890.71875 C 409.242188 895.058594 415.371094 897.273438 423.664062 897.492188 L 430.589844 897.675781 L 430.589844 759.183594 L 422.515625 760.789062 C 406.339844 763.996094 398.183594 774.027344 398.300781 790.613281 Z M 515.023438 432.640625 C 493 432.640625 475.085938 450.542969 475.085938 472.566406 C 475.085938 494.589844 493 512.511719 515.023438 512.511719 C 537.042969 512.511719 554.941406 494.589844 554.941406 472.566406 C 554.941406 450.542969 537.042969 432.640625 515.023438 432.640625 Z M 983.378906 432.640625 C 961.359375 432.640625 943.457031 450.542969 943.457031 472.566406 C 943.457031 494.589844 961.359375 512.511719 983.378906 512.511719 C 1005.398438 512.511719 1023.316406 494.589844 1023.316406 472.566406 C 1023.316406 450.542969 1005.398438 432.640625 983.378906 432.640625 Z M 983.378906 432.640625 " fill-opacity="1" fill-rule="nonzero"/><path fill="#ddf4e7" d="M 1028.785156 685.410156 C 1028.734375 649.738281 1006.445312 627.578125 970.628906 627.5625 C 933.847656 627.546875 897.070312 627.527344 860.289062 627.527344 C 823.511719 627.527344 787.492188 627.527344 751.101562 627.496094 C 732.167969 627.496094 712.902344 627.597656 694.257812 627.679688 L 687.839844 627.714844 C 668.808594 627.816406 646.402344 627.933594 624.617188 627.933594 C 590.203125 627.933594 562.269531 627.648438 536.738281 627.003906 C 536.046875 626.988281 535.355469 626.988281 534.660156 626.988281 C 516.441406 626.988281 500.871094 633 489.605469 644.382812 C 477.855469 656.242188 471.503906 673.148438 471.707031 691.996094 C 472.367188 757.359375 472.28125 823.851562 472.195312 888.152344 L 472.195312 891.664062 C 472.195312 891.664062 472.179688 905.632812 472.179688 905.632812 C 472.144531 930.644531 472.113281 956.519531 472.144531 981.90625 C 472.179688 1022.1875 496.042969 1046.527344 535.945312 1047 C 549.894531 1047.167969 564.855469 1047.234375 584.496094 1047.234375 C 597.074219 1047.234375 609.671875 1047.203125 622.253906 1047.167969 C 634.835938 1047.132812 647.398438 1047.101562 659.976562 1047.101562 L 663.355469 1047.101562 C 694.328125 1047.101562 725.3125 1047.152344 756.285156 1047.183594 L 757.113281 1047.183594 C 757.113281 1047.183594 788.488281 1047.21875 788.488281 1047.21875 C 822.191406 1047.25 856.472656 1047.269531 890.316406 1047.269531 C 914.089844 1047.269531 937.886719 1047.269531 961.679688 1047.21875 C 1004.925781 1047.167969 1028.769531 1023.4375 1028.820312 980.4375 C 1028.90625 887.796875 1028.972656 787.960938 1028.804688 685.441406 Z M 891.34375 796.644531 C 891.445312 803.6875 891.546875 810.984375 891.125 818.109375 C 890.347656 830.523438 883.863281 837.449219 871.839844 838.714844 C 871.046875 838.785156 870.320312 838.816406 869.644531 838.816406 C 859.109375 838.816406 851.171875 831.03125 850.34375 819.867188 C 848.570312 796.222656 848.097656 776.730469 848.875 758.542969 C 849.5 743.507812 857.300781 734.878906 870.269531 734.878906 C 870.761719 734.878906 871.214844 734.878906 871.707031 734.914062 C 884.589844 735.554688 891.160156 744.472656 891.261719 761.429688 C 891.292969 767.898438 891.261719 774.6875 891.261719 780.667969 L 891.261719 786.511719 C 891.242188 790.007812 891.292969 793.519531 891.34375 796.609375 Z M 844.90625 942.132812 C 844.382812 955.777344 835.804688 962.753906 819.40625 962.871094 C 810.253906 962.921875 801.574219 962.957031 792.132812 962.957031 C 788.757812 962.957031 785.378906 962.957031 782.019531 962.957031 C 778.640625 962.957031 775.265625 962.957031 771.871094 962.957031 C 765.132812 962.9375 758.359375 962.9375 751.605469 962.9375 L 750.726562 962.9375 C 743.753906 962.9375 736.746094 962.957031 729.773438 962.972656 C 722.59375 962.988281 715.433594 963.007812 708.273438 963.007812 C 698.242188 963.007812 689.394531 962.957031 680.378906 962.871094 C 671.628906 962.785156 656.90625 960.035156 656.585938 942.535156 C 656.464844 935.863281 658.339844 930.34375 662.023438 926.558594 C 666.023438 922.453125 672.339844 920.242188 680.257812 920.175781 C 704.121094 920.023438 725.210938 919.9375 744.734375 919.9375 C 771.785156 919.9375 796.726562 920.074219 820.960938 920.359375 C 829.488281 920.460938 836.109375 922.726562 840.09375 926.914062 C 843.503906 930.492188 845.175781 935.761719 844.921875 942.164062 Z M 653.207031 793.148438 L 653.207031 796.035156 C 653.207031 796.035156 653.242188 797.03125 653.242188 797.03125 C 653.292969 803.113281 653.34375 809.414062 653.140625 815.527344 C 652.699219 829.257812 645.085938 838.175781 633.28125 838.800781 L 633.230469 838.800781 C 633.230469 838.800781 633.179688 838.800781 633.179688 838.800781 C 632.839844 838.816406 632.503906 838.835938 632.183594 838.835938 C 620.683594 838.835938 611.109375 829.882812 610.363281 818.449219 C 608.996094 796.796875 609.046875 775.144531 610.535156 754.097656 C 611.292969 743.15625 620.363281 734.914062 631.625 734.914062 C 631.691406 734.914062 631.777344 734.914062 631.84375 734.914062 C 632.082031 734.914062 632.335938 734.914062 632.570312 734.914062 C 644.730469 735.4375 652.617188 744.066406 653.121094 757.425781 C 653.375 763.910156 653.324219 770.550781 653.273438 776.96875 L 653.273438 777.847656 C 653.273438 777.847656 653.273438 777.914062 653.273438 777.914062 C 653.242188 781.054688 653.207031 784.164062 653.207031 787.289062 C 653.207031 789.246094 653.207031 791.1875 653.242188 793.132812 Z M 653.207031 793.148438 " fill-opacity="1" fill-rule="nonzero"/><g clip-path="url(#dd8d9e4341)"><path fill="#000000" d="M 898.097656 796.542969 C 898.050781 793.265625 898 789.886719 898 786.5625 L 898 780.71875 C 898.03125 774.402344 898.050781 767.847656 898.015625 761.414062 C 897.878906 740.824219 888.675781 729.019531 872.078125 728.191406 C 871.46875 728.15625 870.878906 728.140625 870.269531 728.140625 C 853.6875 728.140625 842.898438 739.691406 842.121094 758.269531 C 841.34375 776.730469 841.816406 796.476562 843.605469 820.375 C 844.6875 834.984375 855.644531 845.574219 869.644531 845.574219 C 870.574219 845.574219 871.535156 845.523438 872.480469 845.4375 C 887.867188 843.851562 896.882812 834.292969 897.863281 818.515625 C 898.300781 811.1875 898.199219 803.738281 898.097656 796.542969 Z M 659.929688 787.304688 C 659.929688 784.179688 659.960938 781.054688 659.996094 777.914062 C 660.046875 771.125 660.113281 764.113281 659.84375 757.191406 C 659.203125 740.25 648.597656 728.847656 632.824219 728.171875 C 632.417969 728.15625 631.996094 728.15625 631.589844 728.15625 C 616.75 728.15625 604.777344 739.101562 603.761719 753.625 C 602.257812 775.027344 602.207031 796.980469 603.59375 818.886719 C 604.554688 833.851562 617.101562 845.589844 632.148438 845.589844 C 632.640625 845.589844 633.128906 845.574219 633.617188 845.539062 C 649.003906 844.730469 659.320312 833.023438 659.878906 815.746094 C 660.097656 809.160156 660.027344 802.472656 659.976562 795.984375 C 659.976562 793.097656 659.929688 790.210938 659.929688 787.304688 Z M 844.972656 922.234375 C 839.703125 916.695312 831.429688 913.707031 821.027344 913.585938 C 796.507812 913.300781 771.550781 913.164062 744.714844 913.164062 C 724.113281 913.164062 703.023438 913.25 680.191406 913.402344 C 670.429688 913.488281 662.476562 916.390625 657.175781 921.828125 C 652.226562 926.914062 649.675781 934.109375 649.828125 942.636719 C 650.132812 959.339844 661.515625 969.425781 680.308594 969.609375 C 688.585938 969.695312 697.484375 969.746094 708.273438 969.746094 C 715.433594 969.746094 722.613281 969.730469 729.789062 969.710938 C 736.761719 969.695312 743.753906 969.679688 750.726562 969.679688 L 751.605469 969.679688 C 758.359375 969.679688 765.117188 969.679688 771.871094 969.695312 C 778.625 969.695312 785.378906 969.710938 792.132812 969.710938 C 802.707031 969.710938 811.386719 969.679688 819.457031 969.628906 C 839.554688 969.492188 850.984375 959.832031 851.660156 942.402344 C 851.980469 934.140625 849.667969 927.167969 844.972656 922.234375 Z M 898.097656 796.542969 C 898.050781 793.265625 898 789.886719 898 786.5625 L 898 780.71875 C 898.03125 774.402344 898.050781 767.847656 898.015625 761.414062 C 897.878906 740.824219 888.675781 729.019531 872.078125 728.191406 C 871.46875 728.15625 870.878906 728.140625 870.269531 728.140625 C 853.6875 728.140625 842.898438 739.691406 842.121094 758.269531 C 841.34375 776.730469 841.816406 796.476562 843.605469 820.375 C 844.6875 834.984375 855.644531 845.574219 869.644531 845.574219 C 870.574219 845.574219 871.535156 845.523438 872.480469 845.4375 C 887.867188 843.851562 896.882812 834.292969 897.863281 818.515625 C 898.300781 811.1875 898.199219 803.738281 898.097656 796.542969 Z M 844.972656 922.234375 C 839.703125 916.695312 831.429688 913.707031 821.027344 913.585938 C 796.507812 913.300781 771.550781 913.164062 744.714844 913.164062 C 724.113281 913.164062 703.023438 913.25 680.191406 913.402344 C 670.429688 913.488281 662.476562 916.390625 657.175781 921.828125 C 652.226562 926.914062 649.675781 934.109375 649.828125 942.636719 C 650.132812 959.339844 661.515625 969.425781 680.308594 969.609375 C 688.585938 969.695312 697.484375 969.746094 708.273438 969.746094 C 715.433594 969.746094 722.613281 969.730469 729.789062 969.710938 C 736.761719 969.695312 743.753906 969.679688 750.726562 969.679688 L 751.605469 969.679688 C 758.359375 969.679688 765.117188 969.679688 771.871094 969.695312 C 778.625 969.695312 785.378906 969.710938 792.132812 969.710938 C 802.707031 969.710938 811.386719 969.679688 819.457031 969.628906 C 839.554688 969.492188 850.984375 959.832031 851.660156 942.402344 C 851.980469 934.140625 849.667969 927.167969 844.972656 922.234375 Z M 659.929688 787.304688 C 659.929688 784.179688 659.960938 781.054688 659.996094 777.914062 C 660.046875 771.125 660.113281 764.113281 659.84375 757.191406 C 659.203125 740.25 648.597656 728.847656 632.824219 728.171875 C 632.417969 728.15625 631.996094 728.15625 631.589844 728.15625 C 616.75 728.15625 604.777344 739.101562 603.761719 753.625 C 602.257812 775.027344 602.207031 796.980469 603.59375 818.886719 C 604.554688 833.851562 617.101562 845.589844 632.148438 845.589844 C 632.640625 845.589844 633.128906 845.574219 633.617188 845.539062 C 649.003906 844.730469 659.320312 833.023438 659.878906 815.746094 C 660.097656 809.160156 660.027344 802.472656 659.976562 795.984375 C 659.976562 793.097656 659.929688 790.210938 659.929688 787.304688 Z M 659.929688 787.304688 C 659.929688 784.179688 659.960938 781.054688 659.996094 777.914062 C 660.046875 771.125 660.113281 764.113281 659.84375 757.191406 C 659.203125 740.25 648.597656 728.847656 632.824219 728.171875 C 632.417969 728.15625 631.996094 728.15625 631.589844 728.15625 C 616.75 728.15625 604.777344 739.101562 603.761719 753.625 C 602.257812 775.027344 602.207031 796.980469 603.59375 818.886719 C 604.554688 833.851562 617.101562 845.589844 632.148438 845.589844 C 632.640625 845.589844 633.128906 845.574219 633.617188 845.539062 C 649.003906 844.730469 659.320312 833.023438 659.878906 815.746094 C 660.097656 809.160156 660.027344 802.472656 659.976562 795.984375 C 659.976562 793.097656 659.929688 790.210938 659.929688 787.304688 Z M 844.972656 922.234375 C 839.703125 916.695312 831.429688 913.707031 821.027344 913.585938 C 796.507812 913.300781 771.550781 913.164062 744.714844 913.164062 C 724.113281 913.164062 703.023438 913.25 680.191406 913.402344 C 670.429688 913.488281 662.476562 916.390625 657.175781 921.828125 C 652.226562 926.914062 649.675781 934.109375 649.828125 942.636719 C 650.132812 959.339844 661.515625 969.425781 680.308594 969.609375 C 688.585938 969.695312 697.484375 969.746094 708.273438 969.746094 C 715.433594 969.746094 722.613281 969.730469 729.789062 969.710938 C 736.761719 969.695312 743.753906 969.679688 750.726562 969.679688 L 751.605469 969.679688 C 758.359375 969.679688 765.117188 969.679688 771.871094 969.695312 C 778.625 969.695312 785.378906 969.710938 792.132812 969.710938 C 802.707031 969.710938 811.386719 969.679688 819.457031 969.628906 C 839.554688 969.492188 850.984375 959.832031 851.660156 942.402344 C 851.980469 934.140625 849.667969 927.167969 844.972656 922.234375 Z M 898.097656 796.542969 C 898.050781 793.265625 898 789.886719 898 786.5625 L 898 780.71875 C 898.03125 774.402344 898.050781 767.847656 898.015625 761.414062 C 897.878906 740.824219 888.675781 729.019531 872.078125 728.191406 C 871.46875 728.15625 870.878906 728.140625 870.269531 728.140625 C 853.6875 728.140625 842.898438 739.691406 842.121094 758.269531 C 841.34375 776.730469 841.816406 796.476562 843.605469 820.375 C 844.6875 834.984375 855.644531 845.574219 869.644531 845.574219 C 870.574219 845.574219 871.535156 845.523438 872.480469 845.4375 C 887.867188 843.851562 896.882812 834.292969 897.863281 818.515625 C 898.300781 811.1875 898.199219 803.738281 898.097656 796.542969 Z M 898.097656 796.542969 C 898.050781 793.265625 898 789.886719 898 786.5625 L 898 780.71875 C 898.03125 774.402344 898.050781 767.847656 898.015625 761.414062 C 897.878906 740.824219 888.675781 729.019531 872.078125 728.191406 C 871.46875 728.15625 870.878906 728.140625 870.269531 728.140625 C 853.6875 728.140625 842.898438 739.691406 842.121094 758.269531 C 841.34375 776.730469 841.816406 796.476562 843.605469 820.375 C 844.6875 834.984375 855.644531 845.574219 869.644531 845.574219 C 870.574219 845.574219 871.535156 845.523438 872.480469 845.4375 C 887.867188 843.851562 896.882812 834.292969 897.863281 818.515625 C 898.300781 811.1875 898.199219 803.738281 898.097656 796.542969 Z M 844.972656 922.234375 C 839.703125 916.695312 831.429688 913.707031 821.027344 913.585938 C 796.507812 913.300781 771.550781 913.164062 744.714844 913.164062 C 724.113281 913.164062 703.023438 913.25 680.191406 913.402344 C 670.429688 913.488281 662.476562 916.390625 657.175781 921.828125 C 652.226562 926.914062 649.675781 934.109375 649.828125 942.636719 C 650.132812 959.339844 661.515625 969.425781 680.308594 969.609375 C 688.585938 969.695312 697.484375 969.746094 708.273438 969.746094 C 715.433594 969.746094 722.613281 969.730469 729.789062 969.710938 C 736.761719 969.695312 743.753906 969.679688 750.726562 969.679688 L 751.605469 969.679688 C 758.359375 969.679688 765.117188 969.679688 771.871094 969.695312 C 778.625 969.695312 785.378906 969.710938 792.132812 969.710938 C 802.707031 969.710938 811.386719 969.679688 819.457031 969.628906 C 839.554688 969.492188 850.984375 959.832031 851.660156 942.402344 C 851.980469 934.140625 849.667969 927.167969 844.972656 922.234375 Z M 659.929688 787.304688 C 659.929688 784.179688 659.960938 781.054688 659.996094 777.914062 C 660.046875 771.125 660.113281 764.113281 659.84375 757.191406 C 659.203125 740.25 648.597656 728.847656 632.824219 728.171875 C 632.417969 728.15625 631.996094 728.15625 631.589844 728.15625 C 616.75 728.15625 604.777344 739.101562 603.761719 753.625 C 602.257812 775.027344 602.207031 796.980469 603.59375 818.886719 C 604.554688 833.851562 617.101562 845.589844 632.148438 845.589844 C 632.640625 845.589844 633.128906 845.574219 633.617188 845.539062 C 649.003906 844.730469 659.320312 833.023438 659.878906 815.746094 C 660.097656 809.160156 660.027344 802.472656 659.976562 795.984375 C 659.976562 793.097656 659.929688 790.210938 659.929688 787.304688 Z M 659.929688 787.304688 C 659.929688 784.179688 659.960938 781.054688 659.996094 777.914062 C 660.046875 771.125 660.113281 764.113281 659.84375 757.191406 C 659.203125 740.25 648.597656 728.847656 632.824219 728.171875 C 632.417969 728.15625 631.996094 728.15625 631.589844 728.15625 C 616.75 728.15625 604.777344 739.101562 603.761719 753.625 C 602.257812 775.027344 602.207031 796.980469 603.59375 818.886719 C 604.554688 833.851562 617.101562 845.589844 632.148438 845.589844 C 632.640625 845.589844 633.128906 845.574219 633.617188 845.539062 C 649.003906 844.730469 659.320312 833.023438 659.878906 815.746094 C 660.097656 809.160156 660.027344 802.472656 659.976562 795.984375 C 659.976562 793.097656 659.929688 790.210938 659.929688 787.304688 Z M 844.972656 922.234375 C 839.703125 916.695312 831.429688 913.707031 821.027344 913.585938 C 796.507812 913.300781 771.550781 913.164062 744.714844 913.164062 C 724.113281 913.164062 703.023438 913.25 680.191406 913.402344 C 670.429688 913.488281 662.476562 916.390625 657.175781 921.828125 C 652.226562 926.914062 649.675781 934.109375 649.828125 942.636719 C 650.132812 959.339844 661.515625 969.425781 680.308594 969.609375 C 688.585938 969.695312 697.484375 969.746094 708.273438 969.746094 C 715.433594 969.746094 722.613281 969.730469 729.789062 969.710938 C 736.761719 969.695312 743.753906 969.679688 750.726562 969.679688 L 751.605469 969.679688 C 758.359375 969.679688 765.117188 969.679688 771.871094 969.695312 C 778.625 969.695312 785.378906 969.710938 792.132812 969.710938 C 802.707031 969.710938 811.386719 969.679688 819.457031 969.628906 C 839.554688 969.492188 850.984375 959.832031 851.660156 942.402344 C 851.980469 934.140625 849.667969 927.167969 844.972656 922.234375 Z M 898.097656 796.542969 C 898.050781 793.265625 898 789.886719 898 786.5625 L 898 780.71875 C 898.03125 774.402344 898.050781 767.847656 898.015625 761.414062 C 897.878906 740.824219 888.675781 729.019531 872.078125 728.191406 C 871.46875 728.15625 870.878906 728.140625 870.269531 728.140625 C 853.6875 728.140625 842.898438 739.691406 842.121094 758.269531 C 841.34375 776.730469 841.816406 796.476562 843.605469 820.375 C 844.6875 834.984375 855.644531 845.574219 869.644531 845.574219 C 870.574219 845.574219 871.535156 845.523438 872.480469 845.4375 C 887.867188 843.851562 896.882812 834.292969 897.863281 818.515625 C 898.300781 811.1875 898.199219 803.738281 898.097656 796.542969 Z M 898.097656 796.542969 C 898.050781 793.265625 898 789.886719 898 786.5625 L 898 780.71875 C 898.03125 774.402344 898.050781 767.847656 898.015625 761.414062 C 897.878906 740.824219 888.675781 729.019531 872.078125 728.191406 C 871.46875 728.15625 870.878906 728.140625 870.269531 728.140625 C 853.6875 728.140625 842.898438 739.691406 842.121094 758.269531 C 841.34375 776.730469 841.816406 796.476562 843.605469 820.375 C 844.6875 834.984375 855.644531 845.574219 869.644531 845.574219 C 870.574219 845.574219 871.535156 845.523438 872.480469 845.4375 C 887.867188 843.851562 896.882812 834.292969 897.863281 818.515625 C 898.300781 811.1875 898.199219 803.738281 898.097656 796.542969 Z M 821.027344 913.585938 C 796.507812 913.300781 771.550781 913.164062 744.714844 913.164062 C 724.113281 913.164062 703.023438 913.25 680.191406 913.402344 C 670.429688 913.488281 662.476562 916.390625 657.175781 921.828125 C 652.226562 926.914062 649.675781 934.109375 649.828125 942.636719 C 650.132812 959.339844 661.515625 969.425781 680.308594 969.609375 C 688.585938 969.695312 697.484375 969.746094 708.273438 969.746094 C 715.433594 969.746094 722.613281 969.730469 729.789062 969.710938 C 736.761719 969.695312 743.753906 969.679688 750.726562 969.679688 L 751.605469 969.679688 C 758.359375 969.679688 765.117188 969.679688 771.871094 969.695312 C 778.625 969.695312 785.378906 969.710938 792.132812 969.710938 C 802.707031 969.710938 811.386719 969.679688 819.457031 969.628906 C 839.554688 969.492188 850.984375 959.832031 851.660156 942.402344 C 851.980469 934.140625 849.667969 927.167969 844.972656 922.234375 C 839.703125 916.695312 831.429688 913.707031 821.027344 913.585938 Z M 659.878906 815.746094 C 660.097656 809.160156 660.027344 802.472656 659.976562 795.984375 C 659.976562 793.097656 659.929688 790.210938 659.929688 787.304688 C 659.929688 784.179688 659.960938 781.054688 659.996094 777.914062 C 660.046875 771.125 660.113281 764.113281 659.84375 757.191406 C 659.203125 740.25 648.597656 728.847656 632.824219 728.171875 C 632.417969 728.15625 631.996094 728.15625 631.589844 728.15625 C 616.75 728.15625 604.777344 739.101562 603.761719 753.625 C 602.257812 775.027344 602.207031 796.980469 603.59375 818.886719 C 604.554688 833.851562 617.101562 845.589844 632.148438 845.589844 C 632.640625 845.589844 633.128906 845.574219 633.617188 845.539062 C 649.003906 844.730469 659.320312 833.023438 659.878906 815.746094 Z M 1152.90625 788.113281 C 1152.835938 771.023438 1148.582031 756.074219 1140.273438 743.679688 C 1131.929688 731.246094 1119.707031 721.65625 1103.898438 715.152344 C 1098.328125 712.871094 1092.617188 711.097656 1086.574219 709.207031 C 1084.140625 708.445312 1081.625 707.667969 1079.074219 706.84375 C 1079.074219 704.273438 1079.144531 701.675781 1079.195312 699.15625 C 1079.34375 692.722656 1079.496094 686.085938 1078.941406 679.566406 C 1075.308594 636.496094 1057.089844 606.90625 1024.816406 591.621094 C 1010.023438 584.613281 1007.761719 577.570312 1008.066406 563.433594 C 1008.402344 547.859375 1009.6875 537.710938 1024.496094 527.929688 C 1038.933594 518.40625 1048.222656 504.625 1051.382812 488.070312 C 1054.386719 472.28125 1051.347656 455.101562 1042.785156 439.699219 C 1030.171875 416.984375 1006.984375 402.863281 982.296875 402.863281 C 974.597656 402.863281 966.914062 404.214844 959.484375 406.847656 C 932.210938 416.5625 915.8125 436.492188 912.082031 464.476562 C 908.300781 492.9375 919.96875 517.238281 944.925781 532.929688 C 953.117188 538.066406 955.667969 542.640625 955.09375 551.085938 C 954.671875 557.183594 954.753906 563.179688 954.871094 569.53125 C 954.90625 571.707031 954.941406 573.9375 954.957031 576.203125 L 547.003906 576.203125 C 545.234375 558.433594 544.371094 549.378906 545.636719 543.789062 C 546.835938 538.417969 550.113281 536.15625 557.289062 531.207031 C 581.320312 514.621094 592.703125 483.578125 584.96875 455.726562 C 581.03125 441.507812 572.421875 428.402344 560.75 418.824219 C 549.066406 409.246094 534.746094 403.589844 520.441406 402.878906 C 519.242188 402.8125 518.011719 402.796875 516.8125 402.796875 C 487.632812 402.777344 461.863281 420.765625 451.15625 448.582031 C 440.027344 477.515625 449.621094 511.953125 472.992188 526.96875 C 488.984375 537.253906 491.144531 548.636719 489.4375 563.667969 C 489.253906 565.410156 489.40625 567.199219 489.574219 568.921875 C 489.777344 571.132812 489.980469 573.246094 489.335938 574.851562 L 489.285156 575.003906 C 487.3125 580 484.863281 586.234375 481.046875 588.328125 C 455.160156 602.566406 439.117188 620.300781 432.058594 642.558594 C 427.464844 656.984375 424.746094 671.847656 421.875 687.570312 C 420.640625 694.277344 419.375 701.21875 417.941406 708.226562 C 417.90625 708.226562 417.855469 708.242188 417.820312 708.261719 C 416.132812 708.886719 412.992188 710.035156 409.765625 710.878906 C 373.492188 720.234375 352.671875 744.386719 349.53125 780.734375 C 346.964844 810.59375 346.914062 842.785156 349.394531 876.414062 C 350.730469 894.570312 356.859375 909.769531 367.601562 921.59375 C 377.953125 932.992188 392.675781 941.355469 411.355469 946.402344 C 413.75 947.0625 416.066406 947.957031 418.75 948.988281 C 419.746094 949.359375 420.777344 949.75 421.839844 950.152344 C 421.839844 953.820312 421.808594 957.484375 421.789062 961.148438 C 421.738281 969.796875 421.671875 978.730469 421.890625 987.53125 C 422.566406 1015.414062 434.675781 1043.300781 455.074219 1063.988281 C 475.914062 1085.136719 502.679688 1096.824219 530.457031 1096.925781 C 599.050781 1097.195312 670.855469 1097.3125 743.871094 1097.3125 C 816.890625 1097.3125 890.535156 1097.195312 967.824219 1096.941406 C 1020.851562 1096.773438 1065.175781 1060.476562 1075.613281 1008.691406 C 1078.382812 994.945312 1079.109375 980.570312 1079.800781 966.671875 C 1080.105469 960.710938 1080.410156 954.542969 1080.882812 948.464844 C 1081.304688 948.328125 1081.710938 948.210938 1082.117188 948.078125 C 1083.566406 947.601562 1084.933594 947.164062 1086.285156 946.894531 C 1129.109375 937.960938 1152.769531 908.960938 1152.921875 865.234375 C 1153.007812 840.574219 1153.007812 815.359375 1152.90625 788.113281 Z M 423.851562 890.734375 C 417.382812 890.566406 412.753906 888.996094 409.734375 885.957031 C 406.542969 882.746094 405.019531 877.730469 405.070312 870.621094 C 405.222656 844.121094 405.222656 817.183594 405.070312 790.5625 C 404.988281 777.203125 410.796875 769.992188 423.851562 767.410156 Z M 950.210938 472.566406 C 950.210938 454.273438 965.089844 439.394531 983.378906 439.394531 C 1001.667969 439.394531 1016.558594 454.273438 1016.558594 472.566406 C 1016.558594 490.859375 1001.683594 505.753906 983.378906 505.753906 C 965.074219 505.753906 950.210938 490.875 950.210938 472.566406 Z M 481.839844 472.566406 C 481.839844 454.273438 496.714844 439.394531 515.023438 439.394531 C 533.328125 439.394531 548.1875 454.273438 548.1875 472.566406 C 548.1875 490.859375 533.308594 505.753906 515.023438 505.753906 C 496.734375 505.753906 481.839844 490.875 481.839844 472.566406 Z M 1022.046875 980.402344 C 1022 1019.636719 1001.109375 1040.394531 961.644531 1040.445312 C 937.867188 1040.480469 914.074219 1040.496094 890.296875 1040.496094 C 845.902344 1040.496094 800.765625 1040.445312 757.113281 1040.410156 C 725.871094 1040.378906 694.613281 1040.34375 663.355469 1040.328125 L 659.980469 1040.328125 C 647.398438 1040.328125 634.816406 1040.359375 622.238281 1040.394531 C 609.65625 1040.429688 597.074219 1040.460938 584.496094 1040.460938 C 565.800781 1040.460938 550.398438 1040.394531 536.027344 1040.226562 C 499.757812 1039.804688 478.933594 1018.539062 478.902344 981.890625 C 478.867188 951.808594 478.917969 921.238281 478.953125 891.664062 C 479.035156 826.199219 479.136719 758.507812 478.460938 691.910156 C 478.277344 674.886719 483.933594 659.703125 494.402344 649.128906 C 504.367188 639.0625 518.28125 633.742188 534.660156 633.742188 C 535.285156 633.742188 535.929688 633.742188 536.570312 633.761719 C 562.492188 634.402344 590.472656 634.691406 624.617188 634.691406 C 645.710938 634.691406 667.136719 634.589844 687.875 634.46875 C 708.59375 634.367188 730.023438 634.25 751.101562 634.25 C 787.492188 634.285156 823.898438 634.285156 860.289062 634.285156 C 896.679688 634.285156 933.847656 634.285156 970.628906 634.320312 C 1002.765625 634.335938 1021.980469 653.4375 1022.03125 685.425781 C 1022.199219 789.566406 1022.132812 892.980469 1022.046875 980.402344 Z M 1095.828125 841.132812 C 1095.792969 852.3125 1095.777344 863.863281 1095.828125 875.230469 C 1095.859375 885.464844 1091.03125 890.347656 1079.769531 891.277344 L 1079.769531 768.726562 C 1090.320312 770.09375 1095.523438 776.425781 1095.675781 788.046875 C 1095.894531 805.746094 1095.859375 823.734375 1095.828125 841.132812 Z M 898 786.5625 L 898 780.71875 C 898.03125 774.402344 898.050781 767.847656 898.015625 761.414062 C 897.878906 740.824219 888.675781 729.019531 872.078125 728.191406 C 871.46875 728.15625 870.878906 728.140625 870.269531 728.140625 C 853.6875 728.140625 842.898438 739.691406 842.121094 758.269531 C 841.34375 776.730469 841.816406 796.476562 843.605469 820.375 C 844.6875 834.984375 855.644531 845.574219 869.644531 845.574219 C 870.574219 845.574219 871.535156 845.523438 872.480469 845.4375 C 887.867188 843.851562 896.882812 834.292969 897.863281 818.515625 C 898.300781 811.1875 898.199219 803.738281 898.097656 796.542969 C 898.050781 793.265625 898 789.886719 898 786.5625 Z M 821.027344 913.585938 C 796.507812 913.300781 771.550781 913.164062 744.714844 913.164062 C 724.113281 913.164062 703.023438 913.25 680.191406 913.402344 C 670.429688 913.488281 662.476562 916.390625 657.175781 921.828125 C 652.226562 926.914062 649.675781 934.109375 649.828125 942.636719 C 650.132812 959.339844 661.515625 969.425781 680.308594 969.609375 C 688.585938 969.695312 697.484375 969.746094 708.273438 969.746094 C 715.433594 969.746094 722.613281 969.730469 729.789062 969.710938 C 736.761719 969.695312 743.753906 969.679688 750.726562 969.679688 L 751.605469 969.679688 C 758.359375 969.679688 765.117188 969.679688 771.871094 969.695312 C 778.625 969.695312 785.378906 969.710938 792.132812 969.710938 C 802.707031 969.710938 811.386719 969.679688 819.457031 969.628906 C 839.554688 969.492188 850.984375 959.832031 851.660156 942.402344 C 851.980469 934.140625 849.667969 927.167969 844.972656 922.234375 C 839.703125 916.695312 831.429688 913.707031 821.027344 913.585938 Z M 659.878906 815.746094 C 660.097656 809.160156 660.027344 802.472656 659.976562 795.984375 C 659.976562 793.097656 659.929688 790.210938 659.929688 787.304688 C 659.929688 784.179688 659.960938 781.054688 659.996094 777.914062 C 660.046875 771.125 660.113281 764.113281 659.84375 757.191406 C 659.203125 740.25 648.597656 728.847656 632.824219 728.171875 C 632.417969 728.15625 631.996094 728.15625 631.589844 728.15625 C 616.75 728.15625 604.777344 739.101562 603.761719 753.625 C 602.257812 775.027344 602.207031 796.980469 603.59375 818.886719 C 604.554688 833.851562 617.101562 845.589844 632.148438 845.589844 C 632.640625 845.589844 633.128906 845.574219 633.617188 845.539062 C 649.003906 844.730469 659.320312 833.023438 659.878906 815.746094 Z M 659.929688 787.304688 C 659.929688 784.179688 659.960938 781.054688 659.996094 777.914062 C 660.046875 771.125 660.113281 764.113281 659.84375 757.191406 C 659.203125 740.25 648.597656 728.847656 632.824219 728.171875 C 632.417969 728.15625 631.996094 728.15625 631.589844 728.15625 C 616.75 728.15625 604.777344 739.101562 603.761719 753.625 C 602.257812 775.027344 602.207031 796.980469 603.59375 818.886719 C 604.554688 833.851562 617.101562 845.589844 632.148438 845.589844 C 632.640625 845.589844 633.128906 845.574219 633.617188 845.539062 C 649.003906 844.730469 659.320312 833.023438 659.878906 815.746094 C 660.097656 809.160156 660.027344 802.472656 659.976562 795.984375 C 659.976562 793.097656 659.929688 790.210938 659.929688 787.304688 Z M 844.972656 922.234375 C 839.703125 916.695312 831.429688 913.707031 821.027344 913.585938 C 796.507812 913.300781 771.550781 913.164062 744.714844 913.164062 C 724.113281 913.164062 703.023438 913.25 680.191406 913.402344 C 670.429688 913.488281 662.476562 916.390625 657.175781 921.828125 C 652.226562 926.914062 649.675781 934.109375 649.828125 942.636719 C 650.132812 959.339844 661.515625 969.425781 680.308594 969.609375 C 688.585938 969.695312 697.484375 969.746094 708.273438 969.746094 C 715.433594 969.746094 722.613281 969.730469 729.789062 969.710938 C 736.761719 969.695312 743.753906 969.679688 750.726562 969.679688 L 751.605469 969.679688 C 758.359375 969.679688 765.117188 969.679688 771.871094 969.695312 C 778.625 969.695312 785.378906 969.710938 792.132812 969.710938 C 802.707031 969.710938 811.386719 969.679688 819.457031 969.628906 C 839.554688 969.492188 850.984375 959.832031 851.660156 942.402344 C 851.980469 934.140625 849.667969 927.167969 844.972656 922.234375 Z M 898.097656 796.542969 C 898.050781 793.265625 898 789.886719 898 786.5625 L 898 780.71875 C 898.03125 774.402344 898.050781 767.847656 898.015625 761.414062 C 897.878906 740.824219 888.675781 729.019531 872.078125 728.191406 C 871.46875 728.15625 870.878906 728.140625 870.269531 728.140625 C 853.6875 728.140625 842.898438 739.691406 842.121094 758.269531 C 841.34375 776.730469 841.816406 796.476562 843.605469 820.375 C 844.6875 834.984375 855.644531 845.574219 869.644531 845.574219 C 870.574219 845.574219 871.535156 845.523438 872.480469 845.4375 C 887.867188 843.851562 896.882812 834.292969 897.863281 818.515625 C 898.300781 811.1875 898.199219 803.738281 898.097656 796.542969 Z M 898.097656 796.542969 C 898.050781 793.265625 898 789.886719 898 786.5625 L 898 780.71875 C 898.03125 774.402344 898.050781 767.847656 898.015625 761.414062 C 897.878906 740.824219 888.675781 729.019531 872.078125 728.191406 C 871.46875 728.15625 870.878906 728.140625 870.269531 728.140625 C 853.6875 728.140625 842.898438 739.691406 842.121094 758.269531 C 841.34375 776.730469 841.816406 796.476562 843.605469 820.375 C 844.6875 834.984375 855.644531 845.574219 869.644531 845.574219 C 870.574219 845.574219 871.535156 845.523438 872.480469 845.4375 C 887.867188 843.851562 896.882812 834.292969 897.863281 818.515625 C 898.300781 811.1875 898.199219 803.738281 898.097656 796.542969 Z M 844.972656 922.234375 C 839.703125 916.695312 831.429688 913.707031 821.027344 913.585938 C 796.507812 913.300781 771.550781 913.164062 744.714844 913.164062 C 724.113281 913.164062 703.023438 913.25 680.191406 913.402344 C 670.429688 913.488281 662.476562 916.390625 657.175781 921.828125 C 652.226562 926.914062 649.675781 934.109375 649.828125 942.636719 C 650.132812 959.339844 661.515625 969.425781 680.308594 969.609375 C 688.585938 969.695312 697.484375 969.746094 708.273438 969.746094 C 715.433594 969.746094 722.613281 969.730469 729.789062 969.710938 C 736.761719 969.695312 743.753906 969.679688 750.726562 969.679688 L 751.605469 969.679688 C 758.359375 969.679688 765.117188 969.679688 771.871094 969.695312 C 778.625 969.695312 785.378906 969.710938 792.132812 969.710938 C 802.707031 969.710938 811.386719 969.679688 819.457031 969.628906 C 839.554688 969.492188 850.984375 959.832031 851.660156 942.402344 C 851.980469 934.140625 849.667969 927.167969 844.972656 922.234375 Z M 659.929688 787.304688 C 659.929688 784.179688 659.960938 781.054688 659.996094 777.914062 C 660.046875 771.125 660.113281 764.113281 659.84375 757.191406 C 659.203125 740.25 648.597656 728.847656 632.824219 728.171875 C 632.417969 728.15625 631.996094 728.15625 631.589844 728.15625 C 616.75 728.15625 604.777344 739.101562 603.761719 753.625 C 602.257812 775.027344 602.207031 796.980469 603.59375 818.886719 C 604.554688 833.851562 617.101562 845.589844 632.148438 845.589844 C 632.640625 845.589844 633.128906 845.574219 633.617188 845.539062 C 649.003906 844.730469 659.320312 833.023438 659.878906 815.746094 C 660.097656 809.160156 660.027344 802.472656 659.976562 795.984375 C 659.976562 793.097656 659.929688 790.210938 659.929688 787.304688 Z M 659.929688 787.304688 C 659.929688 784.179688 659.960938 781.054688 659.996094 777.914062 C 660.046875 771.125 660.113281 764.113281 659.84375 757.191406 C 659.203125 740.25 648.597656 728.847656 632.824219 728.171875 C 632.417969 728.15625 631.996094 728.15625 631.589844 728.15625 C 616.75 728.15625 604.777344 739.101562 603.761719 753.625 C 602.257812 775.027344 602.207031 796.980469 603.59375 818.886719 C 604.554688 833.851562 617.101562 845.589844 632.148438 845.589844 C 632.640625 845.589844 633.128906 845.574219 633.617188 845.539062 C 649.003906 844.730469 659.320312 833.023438 659.878906 815.746094 C 660.097656 809.160156 660.027344 802.472656 659.976562 795.984375 C 659.976562 793.097656 659.929688 790.210938 659.929688 787.304688 Z M 844.972656 922.234375 C 839.703125 916.695312 831.429688 913.707031 821.027344 913.585938 C 796.507812 913.300781 771.550781 913.164062 744.714844 913.164062 C 724.113281 913.164062 703.023438 913.25 680.191406 913.402344 C 670.429688 913.488281 662.476562 916.390625 657.175781 921.828125 C 652.226562 926.914062 649.675781 934.109375 649.828125 942.636719 C 650.132812 959.339844 661.515625 969.425781 680.308594 969.609375 C 688.585938 969.695312 697.484375 969.746094 708.273438 969.746094 C 715.433594 969.746094 722.613281 969.730469 729.789062 969.710938 C 736.761719 969.695312 743.753906 969.679688 750.726562 969.679688 L 751.605469 969.679688 C 758.359375 969.679688 765.117188 969.679688 771.871094 969.695312 C 778.625 969.695312 785.378906 969.710938 792.132812 969.710938 C 802.707031 969.710938 811.386719 969.679688 819.457031 969.628906 C 839.554688 969.492188 850.984375 959.832031 851.660156 942.402344 C 851.980469 934.140625 849.667969 927.167969 844.972656 922.234375 Z M 898.097656 796.542969 C 898.050781 793.265625 898 789.886719 898 786.5625 L 898 780.71875 C 898.03125 774.402344 898.050781 767.847656 898.015625 761.414062 C 897.878906 740.824219 888.675781 729.019531 872.078125 728.191406 C 871.46875 728.15625 870.878906 728.140625 870.269531 728.140625 C 853.6875 728.140625 842.898438 739.691406 842.121094 758.269531 C 841.34375 776.730469 841.816406 796.476562 843.605469 820.375 C 844.6875 834.984375 855.644531 845.574219 869.644531 845.574219 C 870.574219 845.574219 871.535156 845.523438 872.480469 845.4375 C 887.867188 843.851562 896.882812 834.292969 897.863281 818.515625 C 898.300781 811.1875 898.199219 803.738281 898.097656 796.542969 Z M 898.097656 796.542969 C 898.050781 793.265625 898 789.886719 898 786.5625 L 898 780.71875 C 898.03125 774.402344 898.050781 767.847656 898.015625 761.414062 C 897.878906 740.824219 888.675781 729.019531 872.078125 728.191406 C 871.46875 728.15625 870.878906 728.140625 870.269531 728.140625 C 853.6875 728.140625 842.898438 739.691406 842.121094 758.269531 C 841.34375 776.730469 841.816406 796.476562 843.605469 820.375 C 844.6875 834.984375 855.644531 845.574219 869.644531 845.574219 C 870.574219 845.574219 871.535156 845.523438 872.480469 845.4375 C 887.867188 843.851562 896.882812 834.292969 897.863281 818.515625 C 898.300781 811.1875 898.199219 803.738281 898.097656 796.542969 Z M 844.972656 922.234375 C 839.703125 916.695312 831.429688 913.707031 821.027344 913.585938 C 796.507812 913.300781 771.550781 913.164062 744.714844 913.164062 C 724.113281 913.164062 703.023438 913.25 680.191406 913.402344 C 670.429688 913.488281 662.476562 916.390625 657.175781 921.828125 C 652.226562 926.914062 649.675781 934.109375 649.828125 942.636719 C 650.132812 959.339844 661.515625 969.425781 680.308594 969.609375 C 688.585938 969.695312 697.484375 969.746094 708.273438 969.746094 C 715.433594 969.746094 722.613281 969.730469 729.789062 969.710938 C 736.761719 969.695312 743.753906 969.679688 750.726562 969.679688 L 751.605469 969.679688 C 758.359375 969.679688 765.117188 969.679688 771.871094 969.695312 C 778.625 969.695312 785.378906 969.710938 792.132812 969.710938 C 802.707031 969.710938 811.386719 969.679688 819.457031 969.628906 C 839.554688 969.492188 850.984375 959.832031 851.660156 942.402344 C 851.980469 934.140625 849.667969 927.167969 844.972656 922.234375 Z M 659.929688 787.304688 C 659.929688 784.179688 659.960938 781.054688 659.996094 777.914062 C 660.046875 771.125 660.113281 764.113281 659.84375 757.191406 C 659.203125 740.25 648.597656 728.847656 632.824219 728.171875 C 632.417969 728.15625 631.996094 728.15625 631.589844 728.15625 C 616.75 728.15625 604.777344 739.101562 603.761719 753.625 C 602.257812 775.027344 602.207031 796.980469 603.59375 818.886719 C 604.554688 833.851562 617.101562 845.589844 632.148438 845.589844 C 632.640625 845.589844 633.128906 845.574219 633.617188 845.539062 C 649.003906 844.730469 659.320312 833.023438 659.878906 815.746094 C 660.097656 809.160156 660.027344 802.472656 659.976562 795.984375 C 659.976562 793.097656 659.929688 790.210938 659.929688 787.304688 Z M 659.929688 787.304688 " fill-opacity="1" fill-rule="nonzero"/></g><g clip-path="url(#a1a8f222df)"><g clip-path="url(#c0a0eded37)"><g transform="matrix(1, 0, 0, 1, 493, 653)"><g clip-path="url(#1bdc01b938)"><g clip-path="url(#ccd8859ba3)"><g clip-path="url(#d5f937794c)"><path fill="#ddf4e7" d="M 0.53125 0.847656 L 513.90625 0.847656 L 513.90625 377.417969 L 0.53125 377.417969 Z M 0.53125 0.847656 " fill-opacity="1" fill-rule="nonzero"/></g></g></g></g></g></g><g fill="#000000" fill-opacity="1"><g transform="translate(504.078329, 902.096038)"><g><path d="M 198.625 0 L 145.28125 0 C 142.851562 -3.375 141.140625 -7.6875 140.140625 -12.9375 C 139.265625 -17 137.953125 -20.984375 136.203125 -24.890625 C 134.453125 -28.796875 131.4375 -32.046875 127.15625 -34.640625 C 122.875 -37.234375 116.515625 -38.625 108.078125 -38.8125 L 71.421875 -38.8125 L 71.421875 0 L 15 0 L 15 -134.515625 L 106.765625 -134.515625 C 128.703125 -134.515625 146.398438 -132.875 159.859375 -129.59375 C 173.328125 -126.3125 183.15625 -121.15625 189.34375 -114.125 C 195.53125 -107.09375 198.625 -97.921875 198.625 -86.609375 C 198.625 -77.171875 196.484375 -69.234375 192.203125 -62.796875 C 187.921875 -56.359375 181.15625 -51.269531 171.90625 -47.53125 C 180.84375 -43.84375 186.640625 -39.421875 189.296875 -34.265625 C 191.953125 -29.109375 193.59375 -23.4375 194.21875 -17.25 C 194.84375 -11.75 196.3125 -6 198.625 0 Z M 71.421875 -71.984375 L 103.671875 -72.078125 C 112.671875 -72.078125 119.765625 -72.484375 124.953125 -73.296875 C 130.140625 -74.109375 133.96875 -75.21875 136.4375 -76.625 C 138.90625 -78.03125 140.484375 -79.59375 141.171875 -81.3125 C 141.859375 -83.03125 142.203125 -84.796875 142.203125 -86.609375 C 142.203125 -88.421875 141.859375 -90.203125 141.171875 -91.953125 C 140.484375 -93.703125 138.90625 -95.28125 136.4375 -96.6875 C 133.96875 -98.09375 130.140625 -99.203125 124.953125 -100.015625 C 119.765625 -100.828125 112.671875 -101.234375 103.671875 -101.234375 L 71.421875 -101.234375 Z M 71.421875 -71.984375 "/></g></g></g><g fill="#000000" fill-opacity="1"><g transform="translate(710.196821, 902.096038)"><g><path d="M 270.703125 0 L 214.28125 0 L 214.28125 -85.765625 L 163.84375 0 L 121.765625 0 L 71.421875 -85.765625 L 71.421875 0 L 15 0 L 15 -134.515625 L 82.015625 -134.515625 L 142.859375 -38.4375 L 203.59375 -134.515625 L 270.703125 -134.515625 Z M 270.703125 0 "/></g></g></g><path stroke-linecap="round" transform="matrix(0.75, -0.000000000000000651, 0.000000000000000651, 0.75, 646.363634, 941.911651)" fill="none" stroke-linejoin="miter" d="M 28.499533 28.49801 L 247.864135 28.49801 " stroke="#000000" stroke-width="57" stroke-opacity="1" stroke-miterlimit="4"/></svg>